<svg id="Layer_1" data-name="Layer 1" xmlns="http://www.w3.org/2000/svg" viewBox="0 0 1921 1081"><defs><style>.cls-1,.cls-2{stroke:#000;}.cls-1,.cls-2,.cls-3{stroke-miterlimit:10;}.cls-2,.cls-3{fill:none;}.cls-3{stroke:#9b37a5;}.cls-4{fill:#9b37a5;}</style></defs><rect class="cls-1" x="0.5" y="0.5" width="1920" height="1080"/><path class="cls-2" d="M-213.67,206.33" transform="translate(1)"/><path class="cls-2" d="M-101.67,241" transform="translate(1)"/><path class="cls-3" d="M-133,523" transform="translate(1)"/><path class="cls-4" d="M394.5,544.46a478.42,478.42,0,0,1-33.1,47.66,315.15,315.15,0,0,1-42,44,231.7,231.7,0,0,1-25.84,19.14,189.74,189.74,0,0,1-29.89,15.45,163.76,163.76,0,0,1-33.92,9.63,155.55,155.55,0,0,1-35.3,1.94,179.84,179.84,0,0,1-65.84-17.13,227.37,227.37,0,0,1-53.47-35.69c-4-3.44-7.69-7.09-11.45-10.71-3.6-3.73-7.26-7.42-10.64-11.3s-6.71-7.79-10-11.73c-3.12-4-6.34-8-9.25-12.19a331.47,331.47,0,0,1-30.72-52L75,497.39a251,251,0,0,0,23.26,39.44c2.16,3.12,4.54,6,6.81,9,2.41,2.84,4.74,5.79,7.26,8.49s5,5.4,7.58,8.07c2.65,2.51,5.24,5.11,8,7.45a148.16,148.16,0,0,0,34.61,23.27,100.43,100.43,0,0,0,36.42,9.69,76.68,76.68,0,0,0,17.69-1A84.45,84.45,0,0,0,233.72,597,110.77,110.77,0,0,0,251,588a155.07,155.07,0,0,0,16.85-12.52,236,236,0,0,0,31.28-32.91,398.73,398.73,0,0,0,27.52-39.69Z" transform="translate(1)"/><path d="M79.61,580.7A250.62,250.62,0,0,1,68.2,548.76a255.88,255.88,0,0,1-7-32.08,238.48,238.48,0,0,0,23.9,20.58,211.94,211.94,0,0,0,25.21,16.39,181.77,181.77,0,0,0,30.41,51.6A169,169,0,0,1,109.94,596,215.88,215.88,0,0,1,79.61,580.7Z" transform="translate(1)"/><path d="M37.74,554.72,21.61,565.49,19,561.28c-.86-1.4-1.66-2.84-2.49-4.26L33,547.4l2.78.45L62,532.52c.33,1.54.73,3,1.14,4.54L38.57,552.44Z" transform="translate(1)"/><path d="M114.68,600.38,104,614.22a238.5,238.5,0,0,1-38.34-20.44A265.08,265.08,0,0,1,50,553.43l14.63-9.3a251.53,251.53,0,0,0,13.59,37.44A218.12,218.12,0,0,0,114.68,600.38Z" transform="translate(1)"/><path d="M203.7,644.9a119,119,0,0,1-30.19-14.46,135,135,0,0,1-24-20.39,115.67,115.67,0,0,0,29.11.57,83.13,83.13,0,0,0,25-6.67,81.13,81.13,0,0,0,24.53,6.49c1.11.1,2.24.25,3.37.33l3.41.1c1.15,0,2.32.11,3.5,0l3.58-.13a116.87,116.87,0,0,0,14.74-1.85,134.2,134.2,0,0,1-10.67,11.24l-2.93,2.64c-1,.9-2,1.65-3,2.5l-3.12,2.5c-1.06.8-2.16,1.53-3.26,2.31A111.45,111.45,0,0,1,203.7,644.9Z" transform="translate(1)"/><path d="M153.84,654.56l-5.67,18.54c-.88-.3-1.76-.57-2.62-.89l-2.57-1-5.12-2,7.24-17.69,2.58-1.34,11.26-28.15,3.54,2.84L153,652.26Z" transform="translate(1)"/><path d="M239.88,628.64l6,16.41c-3,2.19-6.16,4-9.38,6-.8.5-1.63.92-2.46,1.35l-2.51,1.3c-1.69.84-3.37,1.8-5.13,2.52l-5.29,2.29-1.34.57-1.36.49-2.74,1-2.77,1-1.4.49-1.41.41-5.7,1.62a135,135,0,0,1-22.07-7.6c-3.49-1.45-6.84-3.23-10.12-4.94l-1.23-.64-1.2-.71-2.39-1.41c-1.57-1-3.16-1.82-4.66-2.86l5.21-16.53c1.29,1,2.64,1.75,4,2.64l2,1.31c.68.45,1.37.87,2.07,1.25,2.79,1.58,5.64,3.27,8.61,4.64a122.91,122.91,0,0,0,18.8,7.4A113.17,113.17,0,0,0,239.88,628.64Z" transform="translate(1)"/><path d="M321.9,580.73c-4.9,3-9.93,5.75-14.92,8.39s-10.06,5-15.17,7.18a163.86,163.86,0,0,1-30.45,9.9c3.2-4,6.22-8,9-12.28.7-1,1.39-2.09,2.06-3.17l2-3.2c1.28-2.2,2.58-4.31,3.78-6.54,2.46-4.36,4.71-8.91,6.88-13.42s4.16-9.14,6-13.85a278.07,278.07,0,0,0,26.22-17c8.66-6.27,17.18-13.09,25.56-20.29-2.58,10.8-5.53,21.59-9,32.3A333.85,333.85,0,0,1,321.9,580.73Z" transform="translate(1)"/><path d="M301.45,625.84l12.63,14.73c-1.37,1.08-2.69,2.18-4.09,3.23l-4.2,3.15-11.3-15.42.19-2.87-18.06-24.35c1.44-.52,2.91-1,4.33-1.57l18.12,22.57Z" transform="translate(1)"/><path d="M338.06,543.6l14.48,9.78a356.75,356.75,0,0,1-15.87,39.5c-6.08,4-12.33,7.75-18.65,11.26-3.14,1.76-6.37,3.42-9.55,5.05s-6.45,3.15-9.73,4.58l-11.05-13.36c6-2.45,11.93-5.27,17.81-8.36s11.72-6.43,17.45-10A350.26,350.26,0,0,0,338.06,543.6Z" transform="translate(1)"/><path class="cls-4" d="M594.15,202.19a77.54,77.54,0,0,0-14.95,8.86,135.41,135.41,0,0,0-15.4,13.54,249,249,0,0,0-28.54,35.65q-6.63,9.87-12.73,20.36l-3,5.27-2.94,5.33c-1.94,3.6-3.82,7.11-5.75,10.95-7.73,15-15.09,30.5-22.3,46.26-14.4,31.53-28.15,64.2-43.09,97.15-7.48,16.48-15.25,33-23.61,49.56-2.13,4.13-4.19,8.25-6.38,12.39s-4.42,8.28-6.69,12.4q-6.83,12.36-14.26,24.55l-67.85-41.59q6.42-10.49,12.45-21.43c2-3.65,4-7.31,5.94-11s3.86-7.5,5.79-11.25c7.65-15.12,15-30.66,22.13-46.48,14.36-31.64,28.13-64.35,43.19-97.35,7.54-16.49,15.41-33.06,23.9-49.57,2.06-4.08,4.35-8.39,6.62-12.6l3.49-6.31,3.58-6.27c4.87-8.35,10-16.6,15.48-24.74a326.87,326.87,0,0,1,38-47.2,214.11,214.11,0,0,1,24.58-21.5,156.64,156.64,0,0,1,30.82-18Z" transform="translate(1)"/><path d="M399.05,456.14C383.32,472.8,367.29,489,350.6,503.6c2.45-10.78,4.55-21.55,6.4-32.4.92-5.46,1.87-10.83,2.68-16.32l1.24-8.16,1.17-8.21c15.11-16.24,30-33.32,44.83-50.62C404.57,410.68,402.16,433.35,399.05,456.14Z" transform="translate(1)"/><path d="M395.32,504.21l17.35,8.67c-1.47,2.69-2.91,5.4-4.43,8.09l-16.71-9.27-1.07-2.58L364,494.4l3.4-3.36L393,504.57Z" transform="translate(1)"/><path d="M406.39,416.07,422.45,423c-1.79,13.58-3.69,27.21-5.9,40.9-9.28,10.37-18.83,20.55-28.5,30.48l-15.26-8.23c2.36-2.33,4.66-4.72,7-7.1s4.67-4.77,7-7.2c4.57-4.85,9.19-9.73,13.69-14.7C402.63,443.41,404.55,429.73,406.39,416.07Z" transform="translate(1)"/><path d="M457.26,326.41c-15.49,16.8-30.69,34.07-45.83,51.19,2.64-22.6,5.32-45.33,8.65-68.37l5.79-6.57,5.88-6.56c3.88-4.36,7.88-8.69,11.85-13s8.06-8.57,12.06-12.81l6.19-6.41,6.29-6.29-1.79,8.72c-.54,2.91-1.12,5.81-1.6,8.69-.95,5.76-2,11.45-2.81,17.19s-1.73,11.41-2.47,17.13l-1.15,8.53Z" transform="translate(1)"/><polygon points="456.99 373.89 474.95 381.19 471.48 389.1 453.97 381.42 452.65 379 424.93 366.73 428.07 363.01 454.67 374.4 456.99 373.89"/><path d="M465.34,286.31l15.73,7.62c-2.33,13.33-4.39,26.63-6.23,40-9,10.07-18,20.39-26.89,30.77l-15.8-7.13c8.76-10.15,17.56-20.27,26.48-30.22C460.6,313.68,462.83,300,465.34,286.31Z" transform="translate(1)"/><path d="M526.58,209.51c-19.41,11.81-37.92,26.51-55.31,42.61,2.8-11.48,6.09-23,10.06-34.56a311.59,311.59,0,0,1,14.27-34.83,255.33,255.33,0,0,1,34-19.84l2.23-1.07,2.29-1,4.55-2,4.67-1.84,2.32-.9,2.39-.83,4.74-1.6,4.85-1.4c.81-.22,1.59-.46,2.41-.66l2.47-.58c1.65-.37,3.24-.78,4.91-1.08-1.3,1.08-2.5,2.24-3.73,3.35l-1.81,1.67c-.59.57-1.14,1.17-1.71,1.75l-3.35,3.48-3.11,3.6-1.53,1.79-1.44,1.84-2.82,3.66-2.63,3.75L544,176.66l-1.23,1.9A199,199,0,0,0,526.58,209.51Z" transform="translate(1)"/><path d="M515.89,254.52l16.53,10.12c-1.4,2.2-2.83,4.37-4.19,6.62L512,261.19l-1-2.52L485.33,242.5c1.22-1.12,2.49-2.21,3.73-3.3l24.5,15.41Z" transform="translate(1)"/><path d="M548.52,174.43l10.88,13.68a186.9,186.9,0,0,0-18,33.5c-5.43,3.26-10.83,6.82-16.18,10.61s-10.63,7.81-15.8,12.06l-14.34-9.74c5.22-4.37,10.63-8.51,16-12.52s10.94-7.75,16.56-11.23c2.81-6.21,5.82-12.43,9.3-18.48A166.27,166.27,0,0,1,548.52,174.43Z" transform="translate(1)"/><path class="cls-4" d="M655.61,489.22C660.52,473.1,665,457,668.5,440.89a483.43,483.43,0,0,0,8.14-48.27l1.2-12.05.76-12,.19-3,.09-2.91c0-1.93.15-3.86.13-5.8l0-5.83-.14-5.83c-.25-7.79-.77-15.59-1.63-23.36s-2-15.48-3.5-23.12-3.28-15.14-5.36-22.49a211.82,211.82,0,0,0-7.24-21.41c-5.46-13.72-12.27-26.45-20-36.25a70.11,70.11,0,0,0-11.92-12,38.86,38.86,0,0,0-11.3-6.25c-.23-.07-.44-.19-.67-.24l-.72-.17c-.47-.11-.94-.24-1.4-.39s-.93-.13-1.39-.23-.91-.23-1.37-.25-.9-.06-1.36-.11l-.68-.09-.68,0q-.69,0-1.38,0c-.46,0-.94.09-1.4.1a34.94,34.94,0,0,0-6,1l-1.61.49a15,15,0,0,0-1.66.52l-1.7.64c-.29.11-.57.18-.86.31l-.88.41-31.56-73.06c2.81-1.31,5.93-2.37,8.93-3.49,1.49-.58,3.12-1,4.69-1.5s3.16-1,4.76-1.38a114.51,114.51,0,0,1,20.26-3.28c1.74-.11,3.47-.26,5.23-.28s3.52,0,5.28,0l2.64.06,2.63.21c1.75.15,3.51.32,5.26.5s3.47.54,5.2.82,3.46.59,5.15,1l5,1.29,2.5.68c.84.23,1.66.54,2.48.82a118,118,0,0,1,35.26,18.94,149.17,149.17,0,0,1,25.57,25.53,198.61,198.61,0,0,1,18.28,27.76,257.29,257.29,0,0,1,13.38,28.56,293.8,293.8,0,0,1,9.81,29c2.74,9.7,5.09,19.45,7,29.23s3.35,19.61,4.46,29.47,1.76,19.76,2.08,29.7l.16,7.46v7.48c0,2.49-.12,5-.18,7.49l-.11,3.74-.22,3.63-.92,14.51-1.44,14.42a563.87,563.87,0,0,1-9.52,56.6c-4.06,18.55-9.08,36.65-14.51,54.45Z" transform="translate(1)"/><path d="M650.53,175.49l-1.22-1.74c-.42-.57-.87-1.09-1.31-1.65l-2.72-3.32c-1-1-2-2.08-3-3.13-.51-.52-1-1.07-1.55-1.58l-1.65-1.46A72.46,72.46,0,0,0,624,152.16l-4.33-2.1c-1.47-.65-3-1.19-4.53-1.78-.78-.28-1.55-.59-2.34-.85l-2.38-.7-2.42-.68c-.81-.23-1.63-.45-2.45-.6l-5-1c-1.69-.29-3.37-.43-5.09-.64-.86-.09-1.73-.19-2.59-.26l-2.58-.11c-1.71,0-3.5-.17-5.22-.1,1.5-.89,3.1-1.6,4.68-2.4l2.41-1.16c.82-.36,1.66-.69,2.5-1,1.68-.65,3.37-1.37,5.12-1.94s3.54-1.09,5.35-1.62a28.3,28.3,0,0,1,2.75-.68l2.79-.6,2.82-.57c.95-.16,1.9-.27,2.86-.4,1.92-.23,3.87-.51,5.82-.65s3.9-.17,5.89-.23l1.49,0,1.47,0,3,.12c2,.1,4,.15,6,.45s4,.52,6,.82,3.95.79,5.95,1.22l3,.68c1,.26,1.93.55,2.9.83,1.94.58,3.9,1.17,5.84,1.8s3.75,1.4,5.63,2.13c.94.38,1.91.74,2.82,1.13l2.71,1.23c1.31,1.51,2.64,3,3.88,4.52l3.49,4.62c.57.77,1.15,1.53,1.69,2.31l1.54,2.34,3,4.67a145.19,145.19,0,0,1,9.42,18.84,178.49,178.49,0,0,1,10.74,37.11,185.36,185.36,0,0,0-27.14-24.86,135.11,135.11,0,0,0-15-9.69l-3.94-2-1.94-1c-.65-.31-1.33-.58-2-.87l-4-1.66C653.21,176.38,651.85,175.94,650.53,175.49Z" transform="translate(1)"/><path d="M610.39,179.48q-.1,9.69-.39,19.37c-.6,0-1.19,0-1.79,0s-1.22.11-1.84.13l-1.65-19c.33-.75.68-1.5,1-2.26L604,147.39c.92.17,1.83.32,2.74.52l2.71.71q0,14.48,0,28.94C609.77,178.2,610.09,178.84,610.39,179.48Z" transform="translate(1)"/><path d="M685.19,198.07l-14.32,10c-2.48-2-5.12-3.84-7.67-5.64-1.29-.87-2.64-1.67-3.93-2.49-.65-.4-1.29-.82-1.95-1.2l-2-1.08-2-1.07a21.5,21.5,0,0,0-2-1l-4-1.8a69.77,69.77,0,0,0-7.87-2.69l-1.07-1.74c-.36-.58-.76-1.08-1.15-1.63l-1.18-1.65a19.09,19.09,0,0,0-1.23-1.62l-2.64-3.13-2.89-2.91a56.59,56.59,0,0,0-14.18-9.7l2-17.22a74.18,74.18,0,0,1,18.46,10.69,75.54,75.54,0,0,1,13.64,14.42c1.54.58,3.18,1.09,4.71,1.77l4.67,2.08c3,1.55,6.18,3.13,9.13,5s5.91,3.84,8.88,5.88C679.54,193.53,682.48,195.69,685.19,198.07Z" transform="translate(1)"/><path d="M711.93,298.43a279,279,0,0,0,1.63-70.38c15.28,19.14,28.08,40.62,38.74,63.48A349.63,349.63,0,0,1,737.5,364,325.15,325.15,0,0,0,711.93,298.43Z" transform="translate(1)"/><path d="M684.17,261.68l-18.28,6.47c-.73-2.38-1.57-4.68-2.38-7l18-6.48,2.57.73,28.62-10c.1,1.68.24,3.35.29,5l-27.38,9.39Z" transform="translate(1)"/><path d="M726.31,336.93l-17.44,1.15a301.35,301.35,0,0,0-15.68-35.92,291,291,0,0,0,3-39.13l16.63-4.92a301.72,301.72,0,0,1-2.57,40.32A317.18,317.18,0,0,1,726.31,336.93Z" transform="translate(1)"/><path d="M708.37,433.82a448.46,448.46,0,0,0,28.86-63.47,483.11,483.11,0,0,1,11.36,71.18,611.31,611.31,0,0,1-36,61.76A621.4,621.4,0,0,0,708.37,433.82Z" transform="translate(1)"/><path d="M696.45,388.7l-19.35-1.38c.25-2.62.56-5.25.76-7.87L696.92,381c.69.59,1.38,1.18,2.05,1.78l30.2,2.61L727.32,390l-28.84-2.44Z" transform="translate(1)"/><path d="M709.35,474.77l-17-4.18L692,460.53l-.67-10c-.38-6.63-1.14-13.24-1.8-19.77,1.65-2.9,3.08-5.83,4.6-8.78l4.52-8.91,4.23-9.05,2.12-4.57c.72-1.53,1.32-3.07,2-4.61l17.22,2c-1.26,3.14-2.69,6.23-4.1,9.31l-4.21,9.17c-1.45,3-3,6-4.48,9l-2.25,4.47L708,431l-1.19,2.2c.58,6.82,1.31,13.74,1.63,20.65l.58,10.43Z" transform="translate(1)"/><path class="cls-4" d="M567,926.26a118.13,118.13,0,0,1-6.55-19.06,150.78,150.78,0,0,1-3.35-17.71A242.55,242.55,0,0,1,555.35,858l.19-14.64c.15-4.86.48-9.71.72-14.56s.73-9.67,1.15-14.49l.67-7.23c.26-2.39.6-4.77.9-7.16l.92-7.17.47-3.58.57-3.54,2.32-14.18,2.75-14c.43-2.35,1-4.65,1.49-7l1.56-6.93c4.27-18.43,9.29-36.5,14.8-54.23s11.58-35,17.82-52.12c3.11-8.55,6.3-17,9.49-25.42l9.6-25c12.7-33,25-65.28,34.84-97.54l76.08,23.33c-10.87,35.6-23.89,69.62-36.66,102.82l-9.49,24.69c-3.09,8.15-6.17,16.3-9.12,24.41-5.93,16.23-11.53,32.39-16.61,48.53s-9.47,32.26-13.2,48.38l-1.37,6c-.45,2-.93,4-1.29,6l-2.37,12.08-2,12.07-.49,3-.38,3-.78,6c-.25,2-.54,4-.76,6l-.55,6c-.34,4-.83,8-1,12s-.47,8-.6,12l-.15,12a166.73,166.73,0,0,0,1.13,21.52,54,54,0,0,0,3.59,14.48Z" transform="translate(1)"/><path d="M666.13,573.44c14.24-17.88,28.28-36,41.77-55-.5,23.19-1.86,46.45-3.45,69.48-14.06,18.44-28.24,36.29-42.07,54.2C663.44,619.37,665,596.35,666.13,573.44Z" transform="translate(1)"/><polygon points="664.86 526.15 646.36 520.33 649.09 512.41 667.2 518.52 668.73 520.78 697.4 530.62 694.57 534.63 667.11 525.48 664.86 526.15"/><path d="M661.42,614l-16.4-6c1-13.61,2.13-27.22,3-40.73,8.33-10.78,16.5-21.6,24.58-32.58l16.31,5.87q-6,8.13-12,16.16c-4.07,5.33-8.09,10.66-12.2,15.94C663.7,586.38,662.53,600.18,661.42,614Z" transform="translate(1)"/><path d="M617.72,707.22c13-18.86,26.74-36.9,40.77-54.67-1.23,22.5-1.92,44.78-1.57,66.55A620,620,0,0,0,622.3,775,599.63,599.63,0,0,1,617.72,707.22Z" transform="translate(1)"/><polygon points="615.26 659.25 596.79 653.35 599.79 644.91 617.77 651.38 619.25 653.72 647.76 664.04 644.92 667.94 617.54 658.55 615.26 659.25"/><path d="M617,747.83,600,744c-.59-13.8-.93-27.8-.72-41.76,7.63-11.78,15.65-23.15,23.67-34.38l16.33,5.83c-7.81,10.74-15.6,21.61-23,32.8,0,3.48-.07,6.93-.06,10.39l.15,10.38.09,5.15.19,5.17Z" transform="translate(1)"/><path d="M593.21,842.15a426.9,426.9,0,0,1,28-61.38,391.21,391.21,0,0,0,13,62.85c-1.8,4.88-3.46,9.81-5.21,14.82s-3.16,9.79-4.51,14.53c-2.63,9.43-4.59,18.53-4.76,27.15a50.34,50.34,0,0,1-4.49-5.18,73.84,73.84,0,0,1-4.11-6.19A114.39,114.39,0,0,1,604,874.42c-2.1-5.09-4-10.4-5.78-15.81S594.8,847.71,593.21,842.15Z" transform="translate(1)"/><path d="M579,795.61l-19.28-2.05.61-4.68.75-4.63L580,787.19l1.88,2,30,4.66c-.71,1.43-1.4,2.86-2,4.31l-28.69-3.78Z" transform="translate(1)"/><path d="M604.16,880.83l-17.33,2.23c-2.73-6.69-5-13.56-7.09-20.39-1.07-3.43-1.92-6.81-2.88-10.25s-1.89-6.89-2.78-10.37c4.6-13.65,9.48-26.9,15.2-39.68l17.19,2.32c-5.57,12-10.37,24.36-14.88,37.12.82,3.38,1.84,6.74,2.75,10.08s1.82,6.65,2.86,9.93A188.05,188.05,0,0,0,604.16,880.83Z" transform="translate(1)"/><path class="cls-4" d="M936.36,759.05c-8.81,14-17.32,28.92-26,44.27s-17.55,31.18-27.26,47.15c-4.83,8-10,16-15.18,23.88l-4,5.91-2,3-2.09,2.94L855.61,892l-4.33,5.82-2.18,2.91-2.25,2.88-4.52,5.76c-3.17,3.8-6.2,7.63-9.53,11.35-6.46,7.53-13.48,14.83-20.86,21.94L806.29,948c-1.93,1.73-3.93,3.43-5.9,5.14-1,.85-2,1.71-3,2.54l-3.1,2.48-3.12,2.46c-1,.83-2.07,1.64-3.17,2.42l-6.54,4.72c-2.21,1.54-4.54,3-6.82,4.49-1.15.74-2.26,1.49-3.46,2.21l-3.63,2.16c-2.45,1.39-4.9,2.79-7.44,4.07a167.43,167.43,0,0,1-15.6,7.17A160.71,160.71,0,0,1,728,993.47a162.47,162.47,0,0,1-17.39,3.9,150.13,150.13,0,0,1-18.1,1.82,138.92,138.92,0,0,1-37-3.49,138,138,0,0,1-50.42-23.53,127.62,127.62,0,0,1-14.43-12.26,114.67,114.67,0,0,1-13.16-15.43A111,111,0,0,1,567,926.26l72.61-32.58a31.27,31.27,0,0,0,2.77,4.83,36.88,36.88,0,0,0,4.08,4.75,49.18,49.18,0,0,0,5.84,4.91,58,58,0,0,0,6.84,4.42,56.34,56.34,0,0,0,14.47,5.63,58.87,58.87,0,0,0,15.76,1.45c10.93-.37,22.73-3.77,34-9.65,1.43-.7,2.82-1.52,4.22-2.3l2.09-1.24c.7-.42,1.42-.93,2.13-1.38,1.43-1,2.87-1.82,4.29-2.82l4.25-3.07c.71-.49,1.41-1,2.1-1.61l2.1-1.66,2.1-1.66c.7-.56,1.38-1.19,2.07-1.78,1.37-1.2,2.76-2.36,4.13-3.58l4.07-3.81c5.37-5.2,10.68-10.66,15.76-16.6,2.59-2.87,5-6,7.57-9l3.69-4.71,1.84-2.35,1.81-2.42,3.6-4.84,3.54-5,1.76-2.48,1.73-2.54,3.47-5.08c4.53-6.88,9-13.83,13.35-21,8.71-14.33,17.21-29.44,26-45s17.84-31.44,27.9-47.46Z" transform="translate(1)"/><path d="M661.93,958.54a90.54,90.54,0,0,1-24.46-22.38,79.18,79.18,0,0,1-8.13-13.06A52.13,52.13,0,0,1,624.92,910a57.78,57.78,0,0,0,11.43,5.63c2,.74,4,1.39,6.14,2s4.24,1.12,6.34,1.5a56.9,56.9,0,0,0,23.35-.23,57.8,57.8,0,0,0,20.59,11.58,83.61,83.61,0,0,0,27.49,3.87,101.24,101.24,0,0,1-25.91,16.55A92.49,92.49,0,0,1,661.93,958.54Z" transform="translate(1)"/><path d="M610.59,952q-6,7.65-11.85,15.36c-3.16-2.63-6.29-5.47-9.33-8.54L603,945.38c1,0,2,0,3-.09l21.21-21.67c.63,1.26,1.32,2.52,2.06,3.77l-18.76,22C610.55,950.29,610.57,951.13,610.59,952Z" transform="translate(1)"/><path d="M700.57,950.62l2.73,17.26c-3.37,1.5-6.87,2.77-10.47,4s-7.32,2.17-11.14,2.95a109.87,109.87,0,0,1-23.88,2.4,109.76,109.76,0,0,1-20-13.58A111.05,111.05,0,0,1,622.15,947l10.55-13.76a92.46,92.46,0,0,0,28.54,26.77,92,92,0,0,0,20.69-2.73A94.35,94.35,0,0,0,700.57,950.62Z" transform="translate(1)"/><path d="M791,910.5a216.2,216.2,0,0,1-31,13.39l-7.82,2.4c-2.62.68-5.23,1.31-7.79,1.94a114.36,114.36,0,0,1-15.22,2.34,121.44,121.44,0,0,0,9.83-11l4.48-5.89,4.19-6.1A212.35,212.35,0,0,0,762,881.65a247.64,247.64,0,0,0,26.88-15.22c8.9-5.8,17.73-12.18,26.44-19-3.09,10.66-6.54,21.26-10.49,31.8A305.32,305.32,0,0,1,791,910.5Z" transform="translate(1)"/><path d="M767,954.14l11.26,15.79-4.48,2.92-2.26,1.44-2.37,1.42-9.73-16.45.51-2.85-15.66-25.95c1.46-.35,2.91-.79,4.39-1.19l16,24.12Z" transform="translate(1)"/><path d="M809.18,874.35l14,10.49A320.06,320.06,0,0,1,805,923.54a239,239,0,0,1-39.59,18.31l-9.87-14.26A211,211,0,0,0,792,911.86,316.48,316.48,0,0,0,809.18,874.35Z" transform="translate(1)"/><path d="M870,798.38c-8.41,7.75-16.9,15.44-25.42,22.9s-17.2,14.58-26,21.37c3.09-10.59,5.85-21.22,8.4-31.9s4.94-21.55,7.36-32.58c16.44-15.51,33.14-31.92,50.63-47.54C879.07,753.45,874.65,775.89,870,798.38Z" transform="translate(1)"/><polygon points="864.16 846.05 880.94 855.78 876.01 863.59 859.91 853.3 858.99 850.66 833.46 834.32 837.07 831.18 861.77 846.27 864.16 846.05"/><path d="M880.74,759,896,767.49c-3.11,13.21-6.06,26.46-9.14,39.83-9.93,9.53-20.05,19.13-30.34,28.42l-14.72-9.16c9.92-8.77,19.73-17.92,29.44-27.15C874.38,786,877.44,772.49,880.74,759Z" transform="translate(1)"/><path class="cls-4" d="M1249.44,758.82c-8-4.44-15.93-8.94-23.71-13.42l-23.08-13.33-11.36-6.53-5.64-3.21-5.5-3.07c-7.31-4-14.63-8-22-11.57s-14.7-7.11-22.08-10.25-14.76-6-22.12-8.61-14.72-4.72-22-6.54a185.87,185.87,0,0,0-21.6-4.07,128.34,128.34,0,0,0-40.47.77l-4.71,1-4.6,1.25a21.37,21.37,0,0,0-2.27.71l-2.25.75c-.75.26-1.52.45-2.25.76l-2.2.89a95.69,95.69,0,0,0-17,8.71c-1.4.79-2.71,1.79-4,2.72s-2.71,1.82-4,2.91l-3.93,3.08-3.81,3.41-1.91,1.69c-.65.54-1.25,1.24-1.88,1.84l-3.75,3.76-.94.93-.91,1-1.83,2.05c-1.22,1.37-2.46,2.69-3.68,4.1a339.59,339.59,0,0,0-27.58,38.5L869,716.7a415.09,415.09,0,0,1,34.44-47.83c1.68-2,3.45-3.88,5.18-5.82l2.62-2.9,1.31-1.45,1.41-1.42,5.64-5.66c1-.93,1.85-1.9,2.89-2.8l3-2.73,6.13-5.44,6.52-5.15c2.13-1.75,4.47-3.32,6.75-4.93s4.55-3.24,7-4.68a180.12,180.12,0,0,1,63-25.06,207.85,207.85,0,0,1,65.46-1.56A269,269,0,0,1,1111,605c9.92,2.47,19.56,5.38,29,8.61s18.51,6.86,27.45,10.67,17.62,7.91,26.17,12.14,16.87,8.67,25.09,13.21l6.11,3.41,5.92,3.36,11.7,6.72,23,13.28c7.59,4.37,15.11,8.66,22.58,12.79Z" transform="translate(1)"/><path d="M952.05,678.66l-1.95.86-1.89,1-3.8,2-3.85,2c-1.28.68-2.48,1.43-3.74,2.15-2.48,1.47-5,2.93-7.51,4.46L922,695.85c-9.7,6.57-19.24,13.74-28.34,21.27A331.17,331.17,0,0,1,906,683l3.84-8.61c1.38-2.87,2.87-5.72,4.34-8.61.76-1.43,1.46-2.89,2.27-4.32l2.51-4.29,2.55-4.32,1.3-2.16,1.43-2.13a190.08,190.08,0,0,1,37.68-16,160.4,160.4,0,0,1,39-6.67,148,148,0,0,0-28.47,24.25A150.42,150.42,0,0,0,952.05,678.66Z" transform="translate(1)"/><path d="M938,722.26l15.86,11.16c-1.55,2-3,4.13-4.53,6.25l-15.6-11-.86-2.57-24.6-17.71c1.31-1,2.56-2.1,3.91-3.1l23.48,16.92Z" transform="translate(1)"/><path d="M978.82,647l8.48,15.28a135.19,135.19,0,0,0-21.9,30,197.4,197.4,0,0,0-33.27,19.29L918.47,701A230.35,230.35,0,0,1,953,680,150.07,150.07,0,0,1,978.82,647Z" transform="translate(1)"/><path d="M1082,641.89a185.57,185.57,0,0,0-32.28-13,158.55,158.55,0,0,0-36.48-6.3,176.55,176.55,0,0,1,36.24-14.18,230.12,230.12,0,0,1,39-6.95c24.36,10.7,45.07,24.43,63.79,39.2C1128.42,638.5,1104.49,638.41,1082,641.89Z" transform="translate(1)"/><path d="M1040.12,658.12l2,19.27c-2.13.26-4.29.41-6.4.7l-2.57-18.94c.38-.8.77-1.59,1.17-2.36l-3.62-30.09,5.12.85,2.92,28.79Z" transform="translate(1)"/><path d="M1123.11,641.59,1118,658.31a222.69,222.69,0,0,0-38.56,2.53c-5.54-3-11.23-5.52-17.12-8-1.47-.59-3-1.11-4.44-1.68s-3-1.16-4.53-1.61c-3-1-6.13-2-9.26-2.77l-.7-17.32c3.4.73,6.74,1.78,10,2.72,1.65.45,3.27,1.06,4.88,1.6l4.8,1.66c6.33,2.45,12.45,5,18.35,8A249.65,249.65,0,0,1,1123.11,641.59Z" transform="translate(1)"/><path d="M1207.94,691.74c-15.38-16.85-31.62-33.29-49.81-48.66,11.77,1.4,23.53,3.29,35.25,5.53q8.76,1.68,17.52,3.59c5.8,1.26,11.69,2.66,17.29,3.94,16.14,16.83,31.35,33.58,46.92,49.87C1252.89,701.64,1230.39,696.45,1207.94,691.74Z" transform="translate(1)"/><path d="M1161.25,687.69l-8,17.69c-2.4-1.17-4.8-2.32-7.21-3.41l8-17.35,2.39-1.31,12.89-27.44c1.26,1.07,2.5,2.18,3.73,3.28l-12.24,26.23Z" transform="translate(1)"/><path d="M1247.22,702.72,1238.74,718c-13.32-3.16-26.59-6.38-39.76-9.37l-7-7.34q-3.45-3.64-7-7.21c-4.69-4.79-9.5-9.48-14.39-14.13l7.81-15.47c9.92,9.27,19.31,18.83,28.45,28.55C1220.34,696.17,1233.8,699.5,1247.22,702.72Z" transform="translate(1)"/><path class="cls-4" d="M1661.69,653.66,1643.78,674q-9,10.15-18.44,20.28c-12.55,13.49-25.63,26.89-39.68,39.86a416.19,416.19,0,0,1-45.73,37c-16.62,11.44-35,21.82-55.47,29.46-1.28.47-2.55,1-3.84,1.41l-3.92,1.31c-2.59.9-5.28,1.64-7.94,2.43s-5.4,1.41-8.1,2.11-5.47,1.16-8.21,1.72a199.91,199.91,0,0,1-33.16,3.43,212,212,0,0,1-32.54-2,247,247,0,0,1-30.9-6.19c-10-2.65-19.6-5.77-29-9.2s-18.36-7.25-27.17-11.21S1282.38,776.25,1274,772s-16.54-8.7-24.57-13.15L1288,689.21c7.49,4.14,14.93,8.16,22.34,11.95s14.8,7.43,22.15,10.73,14.7,6.39,22,9.08,14.53,5,21.7,6.91a168.44,168.44,0,0,0,21.21,4.27,133.94,133.94,0,0,0,20.5,1.27,120.88,120.88,0,0,0,19.67-2c1.6-.35,3.21-.63,4.8-1s3.18-.76,4.77-1.25,3.18-.89,4.77-1.46l2.39-.8c.8-.27,1.59-.59,2.39-.88a176.13,176.13,0,0,0,38.16-20.46,334.81,334.81,0,0,0,36.87-29.91c24-22.17,47-47.87,69.93-74.19Z" transform="translate(1)"/><path d="M1337.9,759.56c-18-14.3-34-30-49.45-46.23,21.87,4.21,43.54,7.35,63.89,7.91,15.72,13,32.42,24.46,51.39,32.66C1383.67,759.38,1360.93,760.79,1337.9,759.56Z" transform="translate(1)"/><path d="M1289.3,758.05l-8.11,17.61-4.16-2.07-4.09-2.1,8.75-17,2.54-1.16,13.9-26.94c1.15,1.11,2.3,2.22,3.46,3.3l-12.73,26Z" transform="translate(1)"/><path d="M1378.15,761.1l-3.38,17.14a276.64,276.64,0,0,1-43-.58A405,405,0,0,1,1299,750.5l7.72-15.53c9.63,9,19.65,17.78,30.38,26,3.46.32,7,.46,10.42.65s6.92.2,10.34.26C1364.71,761.87,1371.48,761.73,1378.15,761.1Z" transform="translate(1)"/><path d="M1477.94,762.72a164.08,164.08,0,0,1-17.08.65,139.86,139.86,0,0,1-47.12-9A123.84,123.84,0,0,0,1440.37,742a119.32,119.32,0,0,0,11.39-8c3.6-2.93,7.06-5.85,10.36-9.1,1.16,0,2.32-.06,3.49-.15l3.53-.22c2.36-.26,4.77-.44,7.18-.81,4.84-.6,9.76-1.57,14.75-2.65A241.6,241.6,0,0,0,1521.4,712C1509.42,730.22,1495.63,747.67,1477.94,762.72Z" transform="translate(1)"/><path d="M1437.2,792.42l3,19.17c-3.62.37-7.24.76-10.86,1l-1.3-19.06c.58-.75,1.15-1.55,1.72-2.33L1427.5,761l4.43,1,3.48,28.73Z" transform="translate(1)"/><path d="M1507.53,735.4l9.79,14.47c-4.6,5.33-9.47,10.57-14.68,15.65a216.52,216.52,0,0,1-16.74,14.59,170.51,170.51,0,0,1-44.58.54l-2.53-17.15a138.22,138.22,0,0,0,19.38,1.73c3.32.09,6.64,0,10-.11s6.74-.4,10.12-.78a195.65,195.65,0,0,0,15.51-13.91C1498.65,745.57,1503.2,740.54,1507.53,735.4Z" transform="translate(1)"/><path d="M1587.06,680c-20.18,10.86-40.68,20.79-61.16,28.38,11.86-18.19,22-37.24,31.64-56.77,9.61-5.2,19.25-10.73,28.89-16.45,4.82-2.85,9.64-5.78,14.45-8.74l14.47-8.89-6.81,15.68q-3.4,7.88-6.91,15.67C1596.94,659.33,1592.13,669.7,1587.06,680Z" transform="translate(1)"/><path d="M1567.63,724.43l13.4,14c-2.32,2.11-4.7,4.19-7.08,6.26l-12.51-14.44-.11-2.81-19.87-22.9c1.44-.65,2.9-1.29,4.32-2l19.49,21.4Z" transform="translate(1)"/><path d="M1606.4,644.21l13.21,11.44c-5.85,12.42-11.91,24.82-18.38,37.22-12.2,7-24.55,13.65-37.08,19.78l-11.62-12.87c11.93-5.64,23.77-11.86,35.51-18.41C1594.46,669.05,1600.52,656.66,1606.4,644.21Z" transform="translate(1)"/><path class="cls-4" d="M1913.24,302.18c-73.27,124-156.74,242.32-251.55,351.48l-60.06-52.21c91.28-105.08,172-219.5,243.07-339.71Z" transform="translate(1)"/><path d="M1683.18,569.39c-9.62,6.23-19.12,12.51-28.81,18.55L1639.92,597l-14.53,8.9,6.72-15.51,6.52-15.58c4.38-10.32,8.5-20.8,12.69-31.17,4.71-3.1,9.3-6.3,14-9.48l14-9.57c9.19-6.51,18.5-13,27.69-19.63-3.75,10.77-7.69,21.46-11.57,32.25l-6,16.07C1687.29,558.66,1685.3,564.07,1683.18,569.39Z" transform="translate(1)"/><path d="M1669.15,615.16l15.2,12.05c-1.9,2.25-3.77,4.54-5.7,6.77l-14.57-12.36-.56-2.7-23.07-19.67,4-2.67L1666.78,615Z" transform="translate(1)"/><path d="M1699.78,532.18l14,10.51c-2.44,6.42-5,12.76-7.57,19.14s-5.09,12.8-7.76,19.13l-17.14,11.65c-5.7,3.87-11.51,7.63-17.24,11.43l-13.2-11.23c5.58-3.65,11.22-7.27,16.77-11l16.68-11.19c2.7-6.36,5.24-12.83,7.84-19.23S1697.31,538.63,1699.78,532.18Z" transform="translate(1)"/><path d="M1769,455.92c-18.36,13.69-36.75,27.14-55.37,40.15,7.71-21.22,14.95-42.56,22-63.83,8.92-6.86,17.78-13.82,26.69-20.8s17.69-14.1,26.46-21.29c-3.09,11-6.37,21.89-9.59,32.9S1772.48,445,1769,455.92Z" transform="translate(1)"/><polygon points="1758.91 502.46 1774.85 513.51 1769.61 520.63 1754.27 509.24 1753.52 506.57 1729.24 488.42 1733.09 485.5 1756.53 502.47 1758.91 502.46"/><path d="M1783.27,417.74l14.58,9.63c-2,6.55-4.21,13.05-6.38,19.57s-4.3,13.06-6.54,19.57c-10.94,8.48-21.79,16.95-32.84,25.19l-13.89-10.37c10.76-7.93,21.32-16.08,32-24.24,2.28-6.53,4.43-13.13,6.63-19.68S1781.19,424.33,1783.27,417.74Z" transform="translate(1)"/><path d="M1845,341.86l-13.14,11c-4.39,3.65-8.84,7.25-13.25,10.86l-13.23,10.78-13.35,10.63,4.78-16.24,4.6-16.28c1.52-5.42,3.07-10.81,4.53-16.24l4.36-16.28c17.1-14.69,34-29.73,50.78-45C1856.05,297.32,1850.76,319.61,1845,341.86Z" transform="translate(1)"/><path d="M1836.64,389l16.55,10.11q-2.39,3.72-4.84,7.39l-16-10.5-.89-2.61-25.29-16.71,3.69-3.13,24.38,15.59Z" transform="translate(1)"/><polygon points="1858.18 302.97 1873.27 311.77 1867.97 331.64 1865.31 341.61 1862.53 351.53 1846.94 365.14 1831.2 378.56 1816.74 369 1832.07 356.08 1847.27 342.96 1850.09 332.98 1852.8 322.96 1858.18 302.97"/></svg>