<svg id="Layer_1" data-name="Layer 1" xmlns="http://www.w3.org/2000/svg" xmlns:xlink="http://www.w3.org/1999/xlink" viewBox="0 0 482.13 561"><defs><style>.cls-1,.cls-17,.cls-18,.cls-19,.cls-20,.cls-21,.cls-22,.cls-3{fill:none;}.cls-2{clip-path:url(#clip-path);}.cls-19,.cls-20,.cls-3{stroke:#1d1200;}.cls-17,.cls-18,.cls-19,.cls-20,.cls-21,.cls-22,.cls-3{stroke-miterlimit:10;}.cls-17,.cls-3{stroke-width:5px;}.cls-4{fill:#d50021;}.cls-5{fill:#0f0b26;}.cls-6{fill:#005bc1;}.cls-7{fill:#11b360;}.cls-8{fill:#f5e839;}.cls-9{fill:#e17431;}.cls-10{fill:#e8bd90;}.cls-11{fill:#cf703a;}.cls-12{fill:#c46a36;}.cls-13{fill:#cea981;}.cls-14{fill:#eec193;}.cls-15{fill:#fc9;}.cls-16{fill:#1d1200;}.cls-17,.cls-18,.cls-21,.cls-22{stroke:#000;}.cls-18{stroke-width:7px;}.cls-20,.cls-21{stroke-width:4px;}.cls-22{stroke-width:3px;}</style><clipPath id="clip-path" transform="translate(-418.87 -568)"><circle class="cls-1" cx="684" cy="803" r="270"/></clipPath></defs><g class="cls-2"><path class="cls-3" d="M767.5,617.5c1-.86,13.45-12.17,10.5-26.13a22.77,22.77,0,0,0-4.5-9.37" transform="translate(-418.87 -568)"/><rect class="cls-4" x="118.13" y="459.38" width="312" height="4.88"/><rect class="cls-5" x="118.13" y="464.25" width="312" height="4.88"/><rect class="cls-6" x="118.13" y="469.13" width="312" height="4.88"/><rect class="cls-7" x="118.13" y="474" width="312" height="4.88"/><rect class="cls-8" x="118.13" y="478.88" width="312" height="4.88"/><rect class="cls-9" x="118.13" y="483.75" width="312" height="4.88"/><rect class="cls-4" x="117.63" y="488.38" width="312" height="4.88"/><rect class="cls-5" x="117.63" y="493.25" width="312" height="4.88"/><rect class="cls-6" x="117.63" y="498.13" width="312" height="4.88"/><rect class="cls-7" x="117.63" y="503" width="312" height="4.88"/><rect class="cls-8" x="117.63" y="507.88" width="312" height="4.88"/><rect class="cls-9" x="117.63" y="512.75" width="312" height="4.88"/><rect class="cls-4" x="117.88" y="516.76" width="312" height="4.88"/><rect class="cls-5" x="117.88" y="521.64" width="312" height="4.88"/><rect class="cls-6" x="117.88" y="526.51" width="312" height="4.88"/><rect class="cls-7" x="117.88" y="531.39" width="312" height="4.88"/><rect class="cls-8" x="117.88" y="536.26" width="312" height="4.88"/><rect class="cls-9" x="117.88" y="541.14" width="312" height="4.88"/><rect class="cls-4" x="117.38" y="545.76" width="312" height="4.88"/><rect class="cls-5" x="117.38" y="550.64" width="312" height="4.88"/><rect class="cls-4" x="117.29" y="430.04" width="312" height="4.88"/><rect class="cls-5" x="117.29" y="434.92" width="312" height="4.88"/><rect class="cls-6" x="117.29" y="439.79" width="312" height="4.88"/><rect class="cls-7" x="117.29" y="444.67" width="312" height="4.88"/><rect class="cls-8" x="117.29" y="449.54" width="312" height="4.88"/><rect class="cls-9" x="117.29" y="454.42" width="312" height="4.88"/><rect class="cls-4" x="117.29" y="401.04" width="312" height="4.88"/><rect class="cls-5" x="117.29" y="405.92" width="312" height="4.88"/><rect class="cls-6" x="117.29" y="410.79" width="312" height="4.88"/><rect class="cls-7" x="117.29" y="415.67" width="312" height="4.88"/><rect class="cls-8" x="117.29" y="420.54" width="312" height="4.88"/><rect class="cls-9" x="117.29" y="425.42" width="312" height="4.88"/><rect class="cls-4" x="118.29" y="373.04" width="312" height="4.88"/><rect class="cls-5" x="118.29" y="377.92" width="312" height="4.88"/><rect class="cls-6" x="118.29" y="382.79" width="312" height="4.88"/><rect class="cls-7" x="118.29" y="387.67" width="312" height="4.88"/><rect class="cls-8" x="118.29" y="392.54" width="312" height="4.88"/><rect class="cls-9" x="118.29" y="397.42" width="312" height="4.88"/><path class="cls-10" d="M619.53,872.33l-13.35,19.24a40.76,40.76,0,0,0-6.66,32.12L605.66,952c2.54,11.75,10.29,22.19,21.6,29.09l13.94,8.5a59.58,59.58,0,0,0,36.15,8.16h0c17-1.53,32.19-10.07,40.67-23l19.14-29a40.72,40.72,0,0,0,6.24-30.46L737,893.66" transform="translate(-418.87 -568)"/><path class="cls-11" d="M755.18,898l-2.86-1c2.95-.69,30.18,4,33.08,4.89l67,20a24.21,24.21,0,0,1,3.77,1.9,84.43,84.43,0,0,1,31.15,31.52L897,972.4a18.41,18.41,0,0,1,4,11.53v126.93A17.94,17.94,0,0,1,883.1,1129l-75.37-.67a25.76,25.76,0,0,1-23.45-15.91c-13.6-32.25-43.42-102.93-44.85-105.75-1.52-3-.53-27.55-.14-36a18.52,18.52,0,0,1,1-5.27,3.07,3.07,0,0,0,.13-.5l11.82-61.69a4.77,4.77,0,0,1,.15-.54C754.26,897.28,749.47,899.38,755.18,898Z" transform="translate(-418.87 -568)"/><path class="cls-11" d="M577.41,897.33,480.86,927a19.45,19.45,0,0,1-2.37.57c-4.51.79-25.68,7-42.88,55.89-17.75,50.42-16.91,74.78-16.64,78.5,0,.37,0,.75,0,1.13l-.1,40.72c0,9.55,8.11,17.38,18.35,17.68L557.14,1125c10.23.29,18.84-7,19.48-16.56,1.78-26.63,7-77.33,21.45-100.17,13.89-21.94,8.58-69.59,4-96.91C600.23,900.58,588.5,893.92,577.41,897.33Z" transform="translate(-418.87 -568)"/><path class="cls-12" d="M636.5,864.5c-1.09.43-13,3-18,10l-1.83,102.87a2.79,2.79,0,0,1-2.26,2.6l-60.59,13.94c-2.28.53-4.31-1.4-3.63-3.43l44.31-128c.34-1,9.73-7.28,10-7l32-8.35C640,846.72,639.71,863.24,636.5,864.5Z" transform="translate(-418.87 -568)"/><path class="cls-12" d="M735,877.82l15.91,12.29a3.71,3.71,0,0,1,1,1.21l32.79,62.52a3.38,3.38,0,0,1,.36,1.07l.87,5.22c.56,3.36-3.56,5.58-6.25,3.36-7.8-6.42-20.44-13.43-34.59-8-23.46,9-22.1,9.53-22.1,9.53l11.35-42.45a3.26,3.26,0,0,0,.09-1.39l-5.64-40C728.34,877.88,732.31,875.74,735,877.82Z" transform="translate(-418.87 -568)"/><path class="cls-10" d="M626,825c-2.68,14.44-5.08,31.91-5.7,42.68C616.64,932,645,936.05,648,938.62c3.5,3,41.25,7.34,41.25,7.34s35.25-2.34,41.25-18.34S747,848.29,747,848.29" transform="translate(-418.87 -568)"/><path class="cls-13" d="M623,843a12.1,12.1,0,0,0,1.29,8.66c5.06,8.88,17.88,29.4,32.2,37.23C675,899,682.67,898,699.33,893c12.76-3.81,32.24-18.66,40.68-25.42a12.11,12.11,0,0,0,4.52-8.58l.67-9.1A12.14,12.14,0,0,0,734.9,837l-95.77-14.33c-6.27-.94-11.73-3.86-13.13,2.33Z" transform="translate(-418.87 -568)"/><path class="cls-14" d="M629,661.53,618,729l-8.47,47a34.33,34.33,0,0,0-.55,6.16v16.23a34.36,34.36,0,0,0,5,17.81l22,36.33a32.37,32.37,0,0,0,12.3,11.74c3.9,2.1,8.07,4.29,9.4,4.78,1.89.7,16.94,2.85,25.88,4.1a30.47,30.47,0,0,0,12.94-1l36.45-11a31.83,31.83,0,0,0,16.83-12.26l16.29-23.22a33.5,33.5,0,0,0,3.51-6.38l21.32-51.13L800.55,745a33,33,0,0,0,1.37-3.92L813.73,699c.15-.58.29-1.16.42-1.73,4.22-18.51-7.79-36.82-25.73-40L655.9,634" transform="translate(-418.87 -568)"/><path class="cls-15" d="M594.8,768.14" transform="translate(-418.87 -568)"/><path d="M608.51,763.11" transform="translate(-418.87 -568)"/><path d="M622,727" transform="translate(-418.87 -568)"/><path class="cls-16" d="M634.6,671.05c9.67-1.9,12-28,18.31-27.29,5.9.68,5,24,13.74,27.29,9.46,3.61,20.17-20.18,28.38-15.92,5.65,2.93,3,15.47,9.16,19.33,8.33,5.19,19.22-13.76,27.46-9.1s3.62,27,11,30.7c8.55,4.29,21.41-22.4,29.3-18.19,7.65,4.08,2.77,33,9.16,35.25,4.39,1.54,8.74-11.47,12.81-10.24,8.7,2.63,1.38,65.6,7.33,67.09,2.79.7,7.12-12.45,8.24-15.92,12.9-39.87,27.87-86.14,11-114.84-5.15-8.76-4.11-6-34.47-31.21-15.58-12.91-20.67-19.44-31.46-24.51-12.56-5.9-13.88-.43-33.87-5.69-20.74-5.44-27.44-13.45-35.71-7.95-8,5.28-8.67,8.76-14.65,9.15-6.69.44-7.48-5.85-17.4-8-3-.65-3.48.51-16.48,4.55C623,579.7,624,602.49,621.64,604c-11.2,7.26-15.33,9-11.76,28.39S625.35,672.86,634.6,671.05Z" transform="translate(-418.87 -568)"/><path class="cls-3" d="M779.11,607.27c14.39-10.77,21.16-8.83,21.16-8.83" transform="translate(-418.87 -568)"/><path class="cls-3" d="M776.63,607.27s7.87-5.77,10.87-13.77" transform="translate(-418.87 -568)"/><path class="cls-3" d="M780.5,611.5c11.33-9.45,22.85-5.68,25.61-4.23" transform="translate(-418.87 -568)"/><path d="M607,701c20.17-120.13,58-111.83,58-111.83v11.6s-26.48,11-36.57,56.63L618.35,703" transform="translate(-418.87 -568)"/><path d="M816.55,759.48c15.57-151.64-17.5-148.08-17.5-148.08L796,625.7s18.67,18.21,14.73,76.25l-4,58" transform="translate(-418.87 -568)"/><path d="M661.13,600.27c75,32.63,138.11,24.12,138.11,24.12l1-13.32L663.88,589.15Z" transform="translate(-418.87 -568)"/><path d="M793,736l-14.1,45.77a15,15,0,0,0-.15,6.92l.48,2.26a14.92,14.92,0,0,0,9.12,10.72h0c.46.18.91.38,1.36.61,2.53,1.32,13.54,6.25,16.76-5.88,3.65-13.73,20.92-52.9,20.92-52.9s4.53-7.06-10.54-11.9-19.14-6.45-20.73-2.78" transform="translate(-418.87 -568)"/><path d="M617.88,749.59l-.56,4.45a12.23,12.23,0,0,1-12.78,10.9l-2.45-.13s-14,1.88-11.84-12.14,2.41-56.8,2.77-56.82c.18.06.07-7.89,12.9-6.58,14,1.43,17.93,1.91,17.73,5.91" transform="translate(-418.87 -568)"/><path class="cls-17" d="M692.5,708.5,654,691.33a16.78,16.78,0,0,0-17.51,4.17" transform="translate(-418.87 -568)"/><path class="cls-18" d="M726.5,719" transform="translate(-418.87 -568)"/><path class="cls-17" d="M723.5,716.5l41,1s5.77.15,11,8l2,3" transform="translate(-418.87 -568)"/><path class="cls-19" d="M646.5,802.5" transform="translate(-418.87 -568)"/><path class="cls-20" d="M654,796.33" transform="translate(-418.87 -568)"/><path class="cls-21" d="M716,815c-7,5-56.16,9.32-62-13" transform="translate(-418.87 -568)"/><path class="cls-21" d="M666.06,776a11.92,11.92,0,0,0-2.06,5.68,2.62,2.62,0,0,0,2.08,2.69l1.64.29a4.18,4.18,0,0,1,2.83,2c1.47,2.46,5.28,6.58,13.74,4.72,11.75-2.58,10.25-1.82,10.25-1.82s1.64.25,1.71,3.65c0,2.32,2.72,2.81,4.7,2.28,3.71-1,3-5,3-5" transform="translate(-418.87 -568)"/><path class="cls-18" d="M699.33,727" transform="translate(-418.87 -568)"/><path class="cls-18" d="M703.5,722.5" transform="translate(-418.87 -568)"/><path class="cls-22" d="M716.5,808.5c12,1,9,8,9,8" transform="translate(-418.87 -568)"/><path class="cls-13" d="M664.87,820.52C684.37,829.82,694,823,694,823" transform="translate(-418.87 -568)"/><path class="cls-17" d="M648,725.89c0-5,5.72-8.87,12-8.89,6.81,0,12.92,4.57,11.95,10" transform="translate(-418.87 -568)"/><path class="cls-17" d="M723,738.9c2.15-4.57,8.93-5.74,14.51-3.14,6.09,2.83,9.57,9.62,6.36,14.2" transform="translate(-418.87 -568)"/></g></svg>