<svg id="Layer_1" data-name="Layer 1" xmlns="http://www.w3.org/2000/svg" viewBox="0 0 803.33 455"><defs><style>.cls-1{stroke:#000;stroke-miterlimit:10;stroke-width:8px;}</style></defs><rect class="cls-1" x="302.25" y="195.57" width="99.42" height="63.86"/><rect class="cls-1" x="401.67" y="195.57" width="99.42" height="63.86"/><rect class="cls-1" x="501.08" y="195.57" width="99.42" height="63.86"/><rect class="cls-1" x="600.5" y="195.57" width="99.42" height="63.86"/><rect class="cls-1" x="202.83" y="259.43" width="99.42" height="63.86"/><rect class="cls-1" x="302.25" y="259.43" width="99.42" height="63.86"/><rect class="cls-1" x="401.67" y="259.43" width="99.42" height="63.86"/><rect class="cls-1" x="501.08" y="259.43" width="99.42" height="63.86"/><rect class="cls-1" x="103.42" y="323.29" width="99.42" height="63.86"/><rect class="cls-1" x="202.83" y="323.29" width="99.42" height="63.86"/><rect class="cls-1" x="302.25" y="323.29" width="99.42" height="63.86"/><rect class="cls-1" x="401.67" y="323.29" width="99.42" height="63.86"/><rect class="cls-1" x="401.67" y="131.71" width="99.42" height="63.86"/><rect class="cls-1" x="501.08" y="131.71" width="99.42" height="63.86"/><rect class="cls-1" x="600.5" y="131.71" width="99.42" height="63.86"/><rect class="cls-1" x="699.92" y="131.71" width="99.42" height="63.86"/><rect class="cls-1" x="699.92" y="195.57" width="99.42" height="63.86"/><rect class="cls-1" x="600.5" y="259.43" width="99.42" height="63.86"/><rect class="cls-1" x="699.92" y="259.43" width="99.42" height="63.86"/><rect class="cls-1" x="501.08" y="323.29" width="99.42" height="63.86"/><rect class="cls-1" x="600.5" y="323.29" width="99.42" height="63.86"/><rect class="cls-1" x="699.92" y="323.29" width="99.42" height="63.86"/><rect class="cls-1" x="501.08" y="67.86" width="99.42" height="63.86"/><rect class="cls-1" x="600.5" y="67.86" width="99.42" height="63.86"/><rect class="cls-1" x="699.92" y="67.86" width="99.42" height="63.86"/><rect class="cls-1" x="600.5" y="4" width="99.42" height="63.86"/><rect class="cls-1" x="103.42" y="387.14" width="99.42" height="63.86"/><rect class="cls-1" x="202.83" y="387.14" width="99.42" height="63.86"/><rect class="cls-1" x="302.25" y="387.14" width="99.42" height="63.86"/><rect class="cls-1" x="401.67" y="387.14" width="99.42" height="63.86"/><rect class="cls-1" x="501.08" y="387.14" width="99.42" height="63.86"/><rect class="cls-1" x="600.5" y="387.14" width="99.42" height="63.86"/><rect class="cls-1" x="699.92" y="387.14" width="99.42" height="63.86"/><rect class="cls-1" x="4" y="387.14" width="99.42" height="63.86"/></svg>